<svg width="26" height="26" xmlns="http://www.w3.org/2000/svg"><g stroke="#98A5B3" fill="none" fill-rule="evenodd"><path d="M4 4v18a1 1 0 0 0 1 1h16a1 1 0 0 0 1-1V4a1 1 0 0 0-1-1H5a1 1 0 0 0-1 1zm-.5 17.5v-17a2 2 0 0 1 2-2h15a2 2 0 0 1 2 2v17a2 2 0 0 1-2 2h-15a2 2 0 0 1-2-2z" stroke-width="2"/><path d="M13.5 12.25a2.75 2.75 0 1 0 0-5.5 2.75 2.75 0 0 0 0 5.5zm-2.2 2c-1.373 0-2.55 1.427-2.55 3.25 0 .69.56 1.25 1.25 1.25h7c.69 0 1.25-.56 1.25-1.25 0-1.823-1.177-3.25-2.55-3.25h-4.4z" stroke-width="1.5"/></g></svg>