<?xml version="1.0" encoding="UTF-8"?>
<svg width="28px" height="28px" viewBox="0 0 28 28" version="1.1" xmlns="http://www.w3.org/2000/svg" xmlns:xlink="http://www.w3.org/1999/xlink">
    <!-- Generator: Sketch 61.1 (89650) - https://sketch.com -->
    <title>ic_tab_home_sel</title>
    <desc>Created with Sketch.</desc>
    <defs>
        <linearGradient x1="97.2883876%" y1="20.0777961%" x2="6.5172248%" y2="77.4047108%" id="linearGradient-1">
            <stop stop-color="#279FFA" offset="0%"></stop>
            <stop stop-color="#286FF6" offset="100%"></stop>
        </linearGradient>
    </defs>
    <g id="页面-1" stroke="none" stroke-width="1" fill="none" fill-rule="evenodd">
        <g id="应用仓库" transform="translate(-174.000000, -623.000000)" fill="url(#linearGradient-1)">
            <g id="TABBAR-Copy-5" transform="translate(0.000000, 618.000000)">
                <g id="首页-2" transform="translate(174.000000, 5.000000)">
                    <g id="首页" transform="translate(3.000000, 3.000000)">
                        <path d="M8,12 C9.1045695,12 10,12.8954305 10,14 L10,20 C10,21.1045695 9.1045695,22 8,22 L2,22 C0.8954305,22 1.3527075e-16,21.1045695 0,20 L0,14 C-1.3527075e-16,12.8954305 0.8954305,12 2,12 L8,12 Z M20,12 C21.1045695,12 22,12.8954305 22,14 L22,20 C22,21.1045695 21.1045695,22 20,22 L14,22 C12.8954305,22 12,21.1045695 12,20 L12,14 C12,12.8954305 12.8954305,12 14,12 L20,12 Z M8,0 C9.1045695,-2.02906125e-16 10,0.8954305 10,2 L10,8 C10,9.1045695 9.1045695,10 8,10 L2,10 C0.8954305,10 1.3527075e-16,9.1045695 0,8 L0,2 C-1.3527075e-16,0.8954305 0.8954305,2.02906125e-16 2,0 L8,0 Z M20,0 C21.1045695,-2.02906125e-16 22,0.8954305 22,2 L22,8 C22,9.1045695 21.1045695,10 20,10 L14,10 C12.8954305,10 12,9.1045695 12,8 L12,2 C12,0.8954305 12.8954305,2.02906125e-16 14,0 L20,0 Z" id="形状结合"></path>
                    </g>
                </g>
            </g>
        </g>
    </g>
</svg>