<?xml version="1.0" encoding="UTF-8"?>
<svg width="28px" height="28px" viewBox="0 0 28 28" version="1.1" xmlns="http://www.w3.org/2000/svg" xmlns:xlink="http://www.w3.org/1999/xlink">
    <!-- Generator: Sketch 61.1 (89650) - https://sketch.com -->
    <title>ic_tab_home_unsel</title>
    <desc>Created with Sketch.</desc>
    <g id="页面-1" stroke="none" stroke-width="1" fill="none" fill-rule="evenodd">
        <g id="我的页面" transform="translate(-60.000000, -623.000000)" fill="#E1E4F0">
            <g id="TABBAR-" transform="translate(0.000000, 618.000000)">
                <g id="首页-2" transform="translate(60.000000, 5.000000)">
                    <g id="首页" transform="translate(0.000000, 1.000000)">
                        <path d="M19,6.5 C20.6568542,6.5 22,7.84314575 22,9.5 L22,21 C22,22.6568542 20.6568542,24 19,24 L9,24 C7.34314575,24 6,22.6568542 6,21 L6,9.5 C6,7.84314575 7.34314575,6.5 9,6.5 L19,6.5 Z M15,18.5 L13,18.5 C12.4477153,18.5 12,18.9477153 12,19.5 L12,19.5 L12,24 L16,24 L16,19.5 C16,18.9477153 15.5522847,18.5 15,18.5 L15,18.5 Z" id="合并形状"></path>
                        <path d="M14.6660158,1.09465694 L26.0445498,11.2540623 C26.4565198,11.6218927 26.4923021,12.2540458 26.1244717,12.6660158 C25.9347461,12.8785085 25.6634006,13 25.378534,13 L2.62146595,13 C2.0691812,13 1.62146595,12.5522847 1.62146595,12 C1.62146595,11.7151334 1.74295746,11.443788 1.95545018,11.2540623 L13.3339842,1.09465694 C13.713384,0.755907152 14.286616,0.755907152 14.6660158,1.09465694 Z" id="矩形"></path>
                    </g>
                </g>
            </g>
        </g>
    </g>
</svg>