<?xml version="1.0" encoding="UTF-8"?>
<svg width="28px" height="28px" viewBox="0 0 28 28" version="1.1" xmlns="http://www.w3.org/2000/svg" xmlns:xlink="http://www.w3.org/1999/xlink">
    <!-- Generator: Sketch 61.1 (89650) - https://sketch.com -->
    <title>ic_tab_my_ sel</title>
    <desc>Created with Sketch.</desc>
    <defs>
        <linearGradient x1="77.9416516%" y1="20.0777961%" x2="24.3069997%" y2="77.4047108%" id="linearGradient-1">
            <stop stop-color="#279FFA" offset="0%"></stop>
            <stop stop-color="#286FF6" offset="100%"></stop>
        </linearGradient>
    </defs>
    <g id="页面-1" stroke="none" stroke-width="1" fill="none" fill-rule="evenodd">
        <g id="我的页面" transform="translate(-288.000000, -623.000000)" fill="url(#linearGradient-1)">
            <g id="TABBAR-" transform="translate(0.000000, 618.000000)">
                <g id="合并形状-2" transform="translate(288.000000, 5.000000)">
                    <path d="M14,16 C19.5228475,16 24,17.4771525 24,22 C24,26.5228475 19.5228475,26 14,26 C8.4771525,26 4,26.5228475 4,22 C4,17.4771525 8.4771525,16 14,16 Z M14,-1.42108547e-14 C17.8659932,-1.42108547e-14 21,3.13400675 21,7 C21,10.8659932 17.8659932,14 14,14 C10.1340068,14 7,10.8659932 7,7 C7,3.13400675 10.1340068,-1.42108547e-14 14,-1.42108547e-14 Z" id="我的"></path>
                </g>
            </g>
        </g>
    </g>
</svg>